<svg width="1600" height="1200" viewBox="0 0 1600 1200" fill="none" xmlns="http://www.w3.org/2000/svg">
  <rect width="1600" height="1200" fill="#DCEAF1"/>
  <circle cx="1268" cy="178" r="282" fill="#B8D5E4"/>
  <circle cx="225" cy="216" r="220" fill="#E9D8B4"/>
  <path d="M0 724C148 684 274 652 404 670C575 694 670 807 831 824C1008 844 1137 742 1312 733C1420 728 1515 754 1600 792V1200H0V724Z" fill="#C7DFE8"/>
  <path d="M0 824C153 786 292 776 440 809C563 837 649 898 770 924C937 960 1108 912 1278 872C1388 846 1494 841 1600 864V1200H0V824Z" fill="#ABCEDB"/>
  <g opacity="0.25" stroke="#2F7D8C" stroke-width="5">
    <path d="M100 472C256 445 408 445 564 472"/>
    <path d="M702 432C862 404 1017 404 1176 432"/>
    <path d="M964 520C1086 498 1208 498 1330 520"/>
  </g>
  <g opacity="0.18" fill="#F7F9FB">
    <path d="M154 756C264 726 360 726 468 756C365 771 261 771 154 756Z"/>
    <path d="M764 885C874 855 970 855 1078 885C974 900 869 900 764 885Z"/>
    <path d="M1170 800C1260 776 1342 776 1433 800C1345 814 1258 814 1170 800Z"/>
  </g>
  <g opacity="0.18" stroke="#8C7655" stroke-width="6">
    <path d="M74 1014C273 976 474 971 672 999"/>
  </g>
</svg>
